<svg width="198" height="43" viewBox="0 0 198 43" fill="none" xmlns="http://www.w3.org/2000/svg">
<path d="M23.8335 17.1909L47.667 2.11019e-06L71.5 17.1909L47.667 34.3821L23.8335 17.1909" fill="white"/>
<path d="M0 17.191L23.8335 0.000105004L47.667 17.191L23.8335 34.3822L0 17.191" fill="#3B557D"/>
<path d="M89.9143 40.7183H85.1233L82.0188 34.7134L80.762 35.4653V40.7183H76.4973V25.0132H80.762V31.8345C80.941 31.4907 81.1451 31.147 81.3743 30.8032C81.6106 30.4595 81.8398 30.1336 82.0618 29.8257L85.3596 25.0132H90.0002L85.0481 32.0493L89.9143 40.7183ZM105.082 40.7183H100.818V34.3159H95.887V40.7183H91.6223V25.0132H95.887V30.8355H100.818V25.0132H105.082V40.7183ZM118.123 40.7183L117.35 37.7749H112.247L111.452 40.7183H106.79L111.914 24.9487H117.575L122.764 40.7183H118.123ZM116.469 34.2944L115.792 31.7163C115.721 31.437 115.617 31.0396 115.481 30.5239C115.345 30.0012 115.209 29.464 115.073 28.9126C114.944 28.354 114.843 27.8957 114.772 27.5376C114.707 27.8957 114.614 28.3397 114.492 28.8696C114.378 29.3924 114.256 29.9116 114.127 30.4273C114.005 30.9429 113.898 31.3726 113.805 31.7163L113.128 34.2944H116.469ZM137.803 32.5327C137.803 34.3589 137.463 35.8771 136.782 37.0874C136.102 38.2977 135.142 39.2072 133.904 39.8159C132.672 40.4175 131.222 40.7183 129.553 40.7183H124.472V25.0132H129.907C131.598 25.0132 133.03 25.3032 134.204 25.8833C135.379 26.4634 136.27 27.312 136.879 28.4292C137.495 29.5464 137.803 30.9142 137.803 32.5327ZM133.399 32.6831C133.399 31.7306 133.27 30.9429 133.012 30.3198C132.761 29.6896 132.382 29.2206 131.873 28.9126C131.365 28.5975 130.724 28.44 129.95 28.44H128.715V37.2378H129.66C130.949 37.2378 131.895 36.8654 132.496 36.1206C133.098 35.3687 133.399 34.2228 133.399 32.6831ZM140.628 40.7183V25.0132H144.893V40.7183H140.628ZM157.622 40.7183H148.298V25.0132H157.622V28.4185H152.541V30.8892H157.246V34.2944H152.541V37.2593H157.622V40.7183ZM173.94 25.0132L168.794 40.7183H163.799L158.675 25.0132H163.445L165.582 32.9732C165.661 33.2739 165.751 33.6607 165.851 34.1333C165.958 34.5988 166.055 35.0643 166.141 35.5298C166.234 35.9953 166.291 36.3749 166.313 36.6685C166.341 36.3749 166.395 35.9989 166.474 35.5405C166.553 35.0822 166.639 34.6239 166.732 34.1655C166.832 33.7 166.925 33.3169 167.011 33.0161L169.192 25.0132H173.94ZM185.283 40.7183L184.51 37.7749H179.407L178.613 40.7183H173.95L179.074 24.9487H184.736L189.924 40.7183H185.283ZM183.629 34.2944L182.952 31.7163C182.881 31.437 182.777 31.0396 182.641 30.5239C182.505 30.0012 182.369 29.464 182.233 28.9126C182.104 28.354 182.003 27.8957 181.932 27.5376C181.867 27.8957 181.774 28.3397 181.653 28.8696C181.538 29.3924 181.416 29.9116 181.287 30.4273C181.166 30.9429 181.058 31.3726 180.965 31.7163L180.288 34.2944H183.629Z" fill="#3B557D"/>
</svg>
